<svg width="154" height="48" viewBox="0 0 154 48" fill="none" xmlns="http://www.w3.org/2000/svg">
<mask id="mask0_5_549" style="mask-type:luminance" maskUnits="userSpaceOnUse" x="0" y="0" width="154" height="48">
<path d="M0.382507 0.315552H153.362V47.4379H0.382507V0.315552Z" fill="white"/>
</mask>
<g mask="url(#mask0_5_549)">
<mask id="mask1_5_549" style="mask-type:luminance" maskUnits="userSpaceOnUse" x="0" y="0" width="154" height="48">
<path d="M23.9638 0.315552H130.083C136.338 0.315552 142.335 2.80081 146.757 7.22315C151.179 11.6455 153.665 17.6417 153.665 23.8969C153.665 30.1521 151.179 36.1483 146.757 40.5706C142.335 44.993 136.338 47.4782 130.083 47.4782H23.9638C17.7087 47.4782 11.7124 44.993 7.2901 40.5706C2.86776 36.1483 0.382507 30.1521 0.382507 23.8969C0.382507 17.6417 2.86776 11.6455 7.2901 7.22315C11.7124 2.80081 17.7087 0.315552 23.9638 0.315552Z" fill="white"/>
</mask>
<g mask="url(#mask1_5_549)">
<path d="M23.9638 0.315552H130.083C136.338 0.315552 142.335 2.80081 146.757 7.22315C151.179 11.6455 153.665 17.6417 153.665 23.8969C153.665 30.1521 151.179 36.1483 146.757 40.5706C142.335 44.993 136.338 47.4782 130.083 47.4782H23.9638C17.7087 47.4782 11.7124 44.993 7.2901 40.5706C2.86776 36.1483 0.382507 30.1521 0.382507 23.8969C0.382507 17.6417 2.86776 11.6455 7.2901 7.22315C11.7124 2.80081 17.7087 0.315552 23.9638 0.315552Z" stroke="#07A5C3" stroke-width="7.99735"/>
</g>
</g>
<path d="M45.7551 10.5045H43.8583V16.1913H45.7551V10.5045ZM45.7551 18.0881H53.3386V16.1913H45.7551V18.0881ZM45.7551 10.5045H53.3386V8.60779H45.7551V10.5045Z" fill="#1C191A"/>
<path d="M55.2276 18.0881H57.1243V14.2946H62.8112V18.0881H64.7079V8.60779H62.8112V12.4012H57.1243V8.60779H55.2276V18.0881Z" fill="#1C191A"/>
<path d="M66.597 18.0881H68.4938V16.1913H74.1806V18.0881H76.0773V10.5045H74.1806V14.2946H68.4938V10.5045H66.597V18.0881ZM68.4938 10.5045H74.1806V8.60779H68.4938V10.5045Z" fill="#1C191A"/>
<path d="M85.5497 18.0881H87.4465V8.60779H85.5497V14.2946H83.653V16.1913H85.5497V18.0881ZM77.9662 18.0881H79.8629V12.4012H81.7563V10.5045H79.8629V8.60779H77.9662V18.0881ZM81.7563 14.2946H83.653V12.4012H81.7563V14.2946Z" fill="#1C191A"/>
<path d="M91.2323 18.0881H98.8159V12.4012H93.1257V14.2946H96.9191V16.1913H91.2323V18.0881ZM89.3356 16.1913H91.2323V10.5045H89.3356V16.1913ZM91.2323 10.5045H98.8159V8.60779H91.2323V10.5045Z" fill="#1C191A"/>
<path d="M100.705 18.0881H110.185V16.1913H102.602V14.2946H108.288V12.4012H102.602V10.5045H110.185V8.60779H100.705V18.0881Z" fill="#1C191A"/>
<path d="M51.4326 36.8069H53.3293V34.9102H59.0162V33.0135H53.3293V29.2234H59.0162V27.3267H51.4326V36.8069ZM59.0162 33.0135H60.9129V29.2234H59.0162V33.0135Z" fill="#1C191A"/>
<path d="M62.802 36.8069H72.2823V34.9102H64.6987V33.0135H70.3856V31.1201H64.6987V29.2234H72.2823V27.3267H62.802V36.8069Z" fill="#1C191A"/>
<path d="M74.1714 36.8069H79.8582V34.9102H77.9615V33.0135H79.8582V31.1201H74.1714V33.0135H76.0681V34.9102H74.1714V36.8069ZM76.0681 29.2234H77.9615V27.3267H76.0681V29.2234Z" fill="#1C191A"/>
<path d="M83.6475 29.2234H81.7507V34.9102H83.6475V29.2234ZM83.6475 36.8069H91.231V34.9102H83.6475V36.8069ZM83.6475 29.2234H91.231V27.3267H83.6475V29.2234Z" fill="#1C191A"/>
<path d="M93.1201 36.8069H102.6V34.9102H95.0168V33.0135H100.704V31.1201H95.0168V29.2234H102.6V27.3267H93.1201V36.8069Z" fill="#1C191A"/>
</svg>
