<svg width="154" height="48" viewBox="0 0 154 48" fill="none" xmlns="http://www.w3.org/2000/svg">
<mask id="mask0_5_547" style="mask-type:luminance" maskUnits="userSpaceOnUse" x="0" y="0" width="154" height="48">
<path d="M0.622131 0.315552H153.894V47.4782H0.622131V0.315552Z" fill="white"/>
</mask>
<g mask="url(#mask0_5_547)">
<mask id="mask1_5_547" style="mask-type:luminance" maskUnits="userSpaceOnUse" x="0" y="0" width="154" height="48">
<path d="M24.2035 0.315552H130.323C136.578 0.315552 142.574 2.80081 146.997 7.22315C151.419 11.6455 153.904 17.6417 153.904 23.8969C153.904 30.1521 151.419 36.1483 146.997 40.5706C142.574 44.993 136.578 47.4782 130.323 47.4782H24.2035C17.9483 47.4782 11.9521 44.993 7.52973 40.5706C3.10739 36.1483 0.622131 30.1521 0.622131 23.8969C0.622131 17.6417 3.10739 11.6455 7.52973 7.22315C11.9521 2.80081 17.9483 0.315552 24.2035 0.315552Z" fill="white"/>
</mask>
<g mask="url(#mask1_5_547)">
<path d="M0.622131 0.315552H153.894V47.4782H0.622131V0.315552Z" fill="#FFFCF0"/>
</g>
</g>
<mask id="mask2_5_547" style="mask-type:luminance" maskUnits="userSpaceOnUse" x="0" y="0" width="154" height="48">
<path d="M0.622131 0.315552H153.601V47.4379H0.622131V0.315552Z" fill="white"/>
</mask>
<g mask="url(#mask2_5_547)">
<mask id="mask3_5_547" style="mask-type:luminance" maskUnits="userSpaceOnUse" x="0" y="0" width="154" height="48">
<path d="M24.2035 0.315552H130.323C136.578 0.315552 142.574 2.80081 146.997 7.22315C151.419 11.6455 153.904 17.6417 153.904 23.8969C153.904 30.1521 151.419 36.1483 146.997 40.5706C142.574 44.993 136.578 47.4782 130.323 47.4782H24.2035C17.9483 47.4782 11.9521 44.993 7.52973 40.5706C3.10739 36.1483 0.622131 30.1521 0.622131 23.8969C0.622131 17.6417 3.10739 11.6455 7.52973 7.22315C11.9521 2.80081 17.9483 0.315552 24.2035 0.315552Z" fill="white"/>
</mask>
<g mask="url(#mask3_5_547)">
<path d="M24.2035 0.315552H130.323C136.578 0.315552 142.574 2.80081 146.997 7.22315C151.419 11.6455 153.904 17.6417 153.904 23.8969C153.904 30.1521 151.419 36.1483 146.997 40.5706C142.574 44.993 136.578 47.4782 130.323 47.4782H24.2035C17.9483 47.4782 11.9521 44.993 7.52973 40.5706C3.10739 36.1483 0.622131 30.1521 0.622131 23.8969C0.622131 17.6417 3.10739 11.6455 7.52973 7.22315C11.9521 2.80081 17.9483 0.315552 24.2035 0.315552Z" stroke="#07A5C3" stroke-width="7.99735"/>
</g>
</g>
<path d="M45.9946 10.5045H44.0979V16.1913H45.9946V10.5045ZM45.9946 18.0881H53.5782V16.1913H45.9946V18.0881ZM45.9946 10.5045H53.5782V8.60779H45.9946V10.5045Z" fill="#1C191A"/>
<path d="M55.4672 18.0881H57.364V14.2946H63.0508V18.0881H64.9475V8.60779H63.0508V12.4012H57.364V8.60779H55.4672V18.0881Z" fill="#1C191A"/>
<path d="M66.8365 18.0881H68.7333V16.1913H74.4201V18.0881H76.3168V10.5045H74.4201V14.2946H68.7333V10.5045H66.8365V18.0881ZM68.7333 10.5045H74.4201V8.60779H68.7333V10.5045Z" fill="#1C191A"/>
<path d="M85.7894 18.0881H87.6862V8.60779H85.7894V14.2946H83.8927V16.1913H85.7894V18.0881ZM78.2059 18.0881H80.1026V12.4012H81.996V10.5045H80.1026V8.60779H78.2059V18.0881ZM81.996 14.2946H83.8927V12.4012H81.996V14.2946Z" fill="#1C191A"/>
<path d="M91.472 18.0881H99.0555V12.4012H93.3654V14.2946H97.1588V16.1913H91.472V18.0881ZM89.5753 16.1913H91.472V10.5045H89.5753V16.1913ZM91.472 10.5045H99.0555V8.60779H91.472V10.5045Z" fill="#1C191A"/>
<path d="M100.945 18.0881H110.425V16.1913H102.841V14.2946H108.528V12.4012H102.841V10.5045H110.425V8.60779H100.945V18.0881Z" fill="#1C191A"/>
<path d="M49.7761 36.8069H57.3597V34.9102H51.6729V33.0135H57.3597V31.1201H51.6729V29.2234H57.3597V27.3267H49.7761V36.8069ZM57.3597 34.9102H59.2564V33.0135H57.3597V34.9102ZM57.3597 31.1201H59.2564V29.2234H57.3597V31.1201Z" fill="#1C191A"/>
<path d="M68.7291 34.9102H63.0422V36.8069H68.7291V34.9102ZM61.1455 34.9102H63.0422V29.2234H61.1455V34.9102ZM63.0422 29.2234H68.7291V27.3267H63.0422V29.2234ZM68.7291 34.9102H70.6258V29.2234H68.7291V34.9102Z" fill="#1C191A"/>
<path d="M72.5147 36.8069H74.4114V34.9102H80.0983V36.8069H81.995V29.2234H80.0983V33.0135H74.4114V29.2234H72.5147V36.8069ZM74.4114 29.2234H80.0983V27.3267H74.4114V29.2234Z" fill="#1C191A"/>
<path d="M83.8841 36.8069H85.7808V34.9102H91.4677V33.0135H85.7808V29.2234H91.4677V27.3267H83.8841V36.8069ZM91.4677 36.8069H93.3644V34.9102H91.4677V36.8069ZM91.4677 33.0135H93.3644V29.2234H91.4677V33.0135Z" fill="#1C191A"/>
<path d="M95.2535 36.8069H102.837V34.9102H97.1502V29.2234H102.837V27.3267H95.2535V36.8069ZM102.837 34.9102H104.734V29.2234H102.837V34.9102Z" fill="#1C191A"/>
</svg>
