<svg xmlns="http://www.w3.org/2000/svg" xmlns:xlink="http://www.w3.org/1999/xlink" width="560" zoomAndPan="magnify" viewBox="0 0 420 55.5" height="74" preserveAspectRatio="xMidYMid meet" version="1.0"><defs><g/><clipPath id="7d14f5a8f3"><path d="M 1.875 0 L 418.125 0 L 418.125 55.003906 L 1.875 55.003906 Z M 1.875 0 " clip-rule="nonzero"/></clipPath><clipPath id="86c953cda9"><path d="M 1.875 0 L 418 0 L 418 54.308594 L 1.875 54.308594 Z M 1.875 0 " clip-rule="nonzero"/></clipPath><clipPath id="d659cbd2ed"><path d="M 29.027344 0 L 390.816406 0 C 398.019531 0 404.925781 2.859375 410.019531 7.953125 C 415.109375 13.046875 417.972656 19.953125 417.972656 27.152344 C 417.972656 34.355469 415.109375 41.261719 410.019531 46.355469 C 404.925781 51.449219 398.019531 54.308594 390.816406 54.308594 L 29.027344 54.308594 C 21.828125 54.308594 14.921875 51.449219 9.828125 46.355469 C 4.734375 41.261719 1.875 34.355469 1.875 27.152344 C 1.875 19.953125 4.734375 13.046875 9.828125 7.953125 C 14.921875 2.859375 21.828125 0 29.027344 0 Z M 29.027344 0 " clip-rule="nonzero"/></clipPath><clipPath id="be7ec0d110"><path d="M 1.875 0 L 418 0 L 418 54.261719 L 1.875 54.261719 Z M 1.875 0 " clip-rule="nonzero"/></clipPath><clipPath id="f2d791afb7"><path d="M 29.027344 0 L 390.808594 0 C 398.011719 0 404.917969 2.859375 410.007812 7.953125 C 415.101562 13.046875 417.960938 19.953125 417.960938 27.152344 C 417.960938 34.355469 415.101562 41.261719 410.007812 46.355469 C 404.917969 51.445312 398.011719 54.308594 390.808594 54.308594 L 29.027344 54.308594 C 21.828125 54.308594 14.921875 51.445312 9.828125 46.355469 C 4.734375 41.261719 1.875 34.355469 1.875 27.152344 C 1.875 19.953125 4.734375 13.046875 9.828125 7.953125 C 14.921875 2.859375 21.828125 0 29.027344 0 Z M 29.027344 0 " clip-rule="nonzero"/></clipPath></defs><g clip-path="url(#7d14f5a8f3)"><path fill="#ffffff" d="M 1.875 0 L 418.125 0 L 418.125 55.003906 L 1.875 55.003906 Z M 1.875 0 " fill-opacity="1" fill-rule="nonzero"/></g><g clip-path="url(#86c953cda9)"><g clip-path="url(#d659cbd2ed)"><path fill="#5292cd" d="M 1.875 0 L 417.882812 0 L 417.882812 54.308594 L 1.875 54.308594 Z M 1.875 0 " fill-opacity="1" fill-rule="nonzero"/></g></g><g clip-path="url(#be7ec0d110)"><g clip-path="url(#f2d791afb7)"><path stroke-linecap="butt" transform="matrix(0.743304, 0, 0, 0.743304, 1.875001, 0.00030035)" fill="none" stroke-linejoin="miter" d="M 36.529279 -0.000404074 L 523.250024 -0.000404074 C 532.940715 -0.000404074 542.232006 3.846443 549.079604 10.699296 C 555.932458 17.552149 559.779305 26.843441 559.779305 36.528877 C 559.779305 46.219568 555.932458 55.51086 549.079604 62.363713 C 542.232006 69.211311 532.940715 73.063413 523.250024 73.063413 L 36.529279 73.063413 C 26.843843 73.063413 17.552551 69.211311 10.699698 62.363713 C 3.846845 55.51086 -0.00000201802 46.219568 -0.00000201802 36.528877 C -0.00000201802 26.843441 3.846845 17.552149 10.699698 10.699296 C 17.552551 3.846443 26.843843 -0.000404074 36.529279 -0.000404074 Z M 36.529279 -0.000404074 " stroke="#416072" stroke-width="8" stroke-opacity="1" stroke-miterlimit="4"/></g></g><g fill="#1c191a" fill-opacity="1"><g transform="translate(183.726984, 31.242294)"><g><path d="M 1.089844 0 L 9.824219 0 L 9.824219 -2.183594 L 3.273438 -2.183594 L 3.273438 -8.734375 L 9.824219 -8.734375 L 9.824219 -10.917969 L 1.089844 -10.917969 Z M 9.824219 -2.183594 L 12.007812 -2.183594 L 12.007812 -8.734375 L 9.824219 -8.734375 Z M 9.824219 -2.183594 "/></g></g></g><g fill="#1c191a" fill-opacity="1"><g transform="translate(196.819305, 31.242294)"><g><path d="M 9.824219 -2.183594 L 3.273438 -2.183594 L 3.273438 0 L 9.824219 0 Z M 1.089844 -2.183594 L 3.273438 -2.183594 L 3.273438 -8.734375 L 1.089844 -8.734375 Z M 3.273438 -8.734375 L 9.824219 -8.734375 L 9.824219 -10.917969 L 3.273438 -10.917969 Z M 9.824219 -2.183594 L 12.007812 -2.183594 L 12.007812 -8.734375 L 9.824219 -8.734375 Z M 9.824219 -2.183594 "/></g></g></g><g fill="#1c191a" fill-opacity="1"><g transform="translate(209.911625, 31.242294)"><g><path d="M 9.824219 0 L 12.007812 0 L 12.007812 -10.917969 L 9.824219 -10.917969 L 9.824219 -4.367188 L 7.640625 -4.367188 L 7.640625 -2.183594 L 9.824219 -2.183594 Z M 1.089844 0 L 3.273438 0 L 3.273438 -6.550781 L 5.457031 -6.550781 L 5.457031 -8.734375 L 3.273438 -8.734375 L 3.273438 -10.917969 L 1.089844 -10.917969 Z M 5.457031 -4.367188 L 7.640625 -4.367188 L 7.640625 -6.550781 L 5.457031 -6.550781 Z M 5.457031 -4.367188 "/></g></g></g><g fill="#1c191a" fill-opacity="1"><g transform="translate(223.003945, 31.242294)"><g><path d="M 1.089844 0 L 12.007812 0 L 12.007812 -2.183594 L 3.273438 -2.183594 L 3.273438 -4.367188 L 9.824219 -4.367188 L 9.824219 -6.550781 L 3.273438 -6.550781 L 3.273438 -8.734375 L 12.007812 -8.734375 L 12.007812 -10.917969 L 1.089844 -10.917969 Z M 1.089844 0 "/></g></g></g><g fill="#1c191a" fill-opacity="1"><g transform="translate(236.106655, 31.242294)"><g/></g></g></svg>