<svg width="259" height="48" viewBox="0 0 259 48" fill="none" xmlns="http://www.w3.org/2000/svg">
<mask id="mask0_5_544" style="mask-type:luminance" maskUnits="userSpaceOnUse" x="0" y="0" width="259" height="48">
<path d="M0.393341 0.400635H258.49V47.5599H0.393341V0.400635Z" fill="white"/>
</mask>
<g mask="url(#mask0_5_544)">
<mask id="mask1_5_544" style="mask-type:luminance" maskUnits="userSpaceOnUse" x="0" y="0" width="259" height="48">
<path d="M23.9747 0.400635H234.821C241.076 0.400635 247.073 2.88253 251.495 7.30487C255.917 11.7272 258.402 17.7268 258.402 23.9786C258.402 30.2338 255.917 36.23 251.495 40.6523C247.073 45.0747 241.076 47.5599 234.821 47.5599H23.9747C17.7229 47.5599 11.7233 45.0747 7.30094 40.6523C2.8786 36.23 0.393341 30.2338 0.393341 23.9786C0.393341 17.7268 2.8786 11.7272 7.30094 7.30487C11.7233 2.88253 17.7229 0.400635 23.9747 0.400635Z" fill="white"/>
</mask>
<g mask="url(#mask1_5_544)">
<path d="M0.393341 0.400635H258.49V47.5599H0.393341V0.400635Z" fill="#FFFCF0"/>
</g>
</g>
<mask id="mask2_5_544" style="mask-type:luminance" maskUnits="userSpaceOnUse" x="0" y="0" width="259" height="48">
<path d="M0.393341 0.400635H258.54V47.5196H0.393341V0.400635Z" fill="white"/>
</mask>
<g mask="url(#mask2_5_544)">
<mask id="mask3_5_544" style="mask-type:luminance" maskUnits="userSpaceOnUse" x="0" y="0" width="259" height="48">
<path d="M23.9747 0.400635H234.814C241.07 0.400635 247.066 2.88253 251.488 7.30487C255.91 11.7272 258.396 17.7268 258.396 23.9786C258.396 30.2338 255.91 36.23 251.488 40.6523C247.066 45.0747 241.07 47.5599 234.814 47.5599H23.9747C17.7195 47.5599 11.7233 45.0747 7.30094 40.6523C2.8786 36.23 0.393341 30.2338 0.393341 23.9786C0.393341 17.7268 2.8786 11.7272 7.30094 7.30487C11.7233 2.88253 17.7195 0.400635 23.9747 0.400635Z" fill="white"/>
</mask>
<g mask="url(#mask3_5_544)">
<path d="M23.9747 0.400635H234.814C241.07 0.400635 247.066 2.88253 251.488 7.30487C255.911 11.7272 258.396 17.7268 258.396 23.9786C258.396 30.2338 255.911 36.23 251.488 40.6524C247.066 45.0747 241.07 47.5599 234.814 47.5599H23.9747C17.7195 47.5599 11.7233 45.0747 7.30094 40.6524C2.8786 36.23 0.393341 30.2338 0.393341 23.9786C0.393341 17.7268 2.8786 11.7272 7.30094 7.30487C11.7233 2.88253 17.7195 0.400635 23.9747 0.400635Z" stroke="#07A5C3" stroke-width="7.99735"/>
</g>
</g>
<path d="M77.2899 27.53H79.1867V18.0497H77.2899V19.9464H75.3932V21.8431H77.2899V27.53ZM69.7064 27.53H71.6031V21.8431H73.4965V19.9464H71.6031V18.0497H69.7064V27.53ZM73.4965 23.7365H75.3932V21.8431H73.4965V23.7365Z" fill="#416072"/>
<path d="M88.6592 25.6332H82.9724V27.53H88.6592V25.6332ZM81.0756 25.6332H82.9724V18.0497H81.0756V25.6332ZM88.6592 25.6332H90.5559V18.0497H88.6592V25.6332Z" fill="#416072"/>
<path d="M94.3417 27.53H101.925V25.6332H94.3417V27.53ZM92.445 25.6332H94.3417V18.0497H92.445V25.6332Z" fill='#07A5C3'/>
<path d="M107.604 27.53H109.501V19.9464H113.295V18.0497H103.814V19.9464H107.604V27.53Z" fill="#416072"/>
<path d="M115.184 27.53H120.87V25.6332H118.974V23.7365H120.87V21.8431H115.184V23.7365H117.08V25.6332H115.184V27.53ZM117.08 19.9464H118.974V18.0497H117.08V19.9464Z" fill="#416072"/>
<path d="M122.763 27.53H124.66V25.6332H130.347V23.7365H124.66V19.9464H130.347V18.0497H122.763V27.53ZM130.347 23.7365H132.243V19.9464H130.347V23.7365Z" fill="#416072"/>
<path d="M136.029 27.53H143.613V25.6332H136.029V27.53ZM134.132 25.6332H136.029V18.0497H134.132V25.6332Z" fill="#416072"/>
<path d="M145.502 27.53H147.399V25.6332H153.085V27.53H154.982V19.9464H153.085V23.7365H147.399V19.9464H145.502V27.53ZM147.399 19.9464H153.085V18.0497H147.399V19.9464Z" fill="#416072"/>
<path d="M160.661 27.53H162.558V23.7365H160.661V27.53ZM156.871 21.8431H158.768V18.0497H156.871V21.8431ZM158.768 23.7365H160.661V21.8431H158.768V23.7365ZM162.558 23.7365H164.455V21.8431H162.558V23.7365ZM164.455 21.8431H166.351V18.0497H164.455V21.8431Z" fill="#416072"/>
<path d="M168.24 27.53H177.721V25.6332H170.137V23.7365H175.824V21.8431H170.137V19.9464H177.721V18.0497H168.24V27.53Z" fill="#416072"/>
<path d="M179.61 27.53H181.506V25.6332H187.193V23.7365H181.506V19.9464H187.193V18.0497H179.61V27.53ZM187.193 27.53H189.09V25.6332H187.193V27.53ZM187.193 23.7365H189.09V19.9464H187.193V23.7365Z" fill="#416072"/>
</svg>
