<svg width="259" height="48" viewBox="0 0 259 48" fill="none" xmlns="http://www.w3.org/2000/svg">
<mask id="mask0_5_545" style="mask-type:luminance" maskUnits="userSpaceOnUse" x="0" y="0" width="259" height="48">
<path d="M0.393341 0.135315H258.49V47.298H0.393341V0.135315Z" fill="white"/>
</mask>
<g mask="url(#mask0_5_545)">
<mask id="mask1_5_545" style="mask-type:luminance" maskUnits="userSpaceOnUse" x="0" y="0" width="259" height="48">
<path d="M23.9747 0.135315H234.821C241.076 0.135315 247.073 2.62057 251.495 7.04291C255.917 11.4653 258.402 17.4648 258.402 23.7166C258.402 29.9718 255.917 35.968 251.495 40.3904C247.073 44.8127 241.076 47.298 234.821 47.298H23.9747C17.7229 47.298 11.7233 44.8127 7.30094 40.3904C2.8786 35.968 0.393341 29.9718 0.393341 23.7166C0.393341 17.4648 2.8786 11.4653 7.30094 7.04291C11.7233 2.62057 17.7229 0.135315 23.9747 0.135315Z" fill="white"/>
</mask>
<g mask="url(#mask1_5_545)">
<path d="M0.393341 0.135315H258.49V47.298H0.393341V0.135315Z" fill="#FFFCF0"/>
</g>
</g>
<mask id="mask2_5_545" style="mask-type:luminance" maskUnits="userSpaceOnUse" x="0" y="0" width="259" height="48">
<path d="M0.393341 0.135315H258.54V47.2576H0.393341V0.135315Z" fill="white"/>
</mask>
<g mask="url(#mask2_5_545)">
<mask id="mask3_5_545" style="mask-type:luminance" maskUnits="userSpaceOnUse" x="0" y="0" width="259" height="48">
<path d="M23.9747 0.135315H234.814C241.07 0.135315 247.066 2.62057 251.488 7.04291C255.91 11.4653 258.396 17.4615 258.396 23.7166C258.396 29.9718 255.91 35.968 251.488 40.3904C247.066 44.8127 241.07 47.298 234.814 47.298H23.9747C17.7195 47.298 11.7233 44.8127 7.30094 40.3904C2.8786 35.968 0.393341 29.9718 0.393341 23.7166C0.393341 17.4615 2.8786 11.4653 7.30094 7.04291C11.7233 2.62057 17.7195 0.135315 23.9747 0.135315Z" fill="white"/>
</mask>
<g mask="url(#mask3_5_545)">
<path d="M23.9747 0.135315H234.814C241.07 0.135315 247.066 2.62057 251.488 7.04291C255.911 11.4653 258.396 17.4615 258.396 23.7167C258.396 29.9718 255.911 35.9681 251.488 40.3904C247.066 44.8127 241.07 47.298 234.814 47.298H23.9747C17.7195 47.298 11.7233 44.8127 7.30094 40.3904C2.8786 35.9681 0.393341 29.9718 0.393341 23.7167C0.393341 17.4615 2.8786 11.4653 7.30094 7.04291C11.7233 2.62057 17.7195 0.135315 23.9747 0.135315Z" stroke="#07A5C3" stroke-width="7.99735"/>
</g>
</g>
<path d="M72.5505 27.2673H74.4473V25.3705H80.1341V23.4738H74.4473V19.6837H80.1341V17.787H72.5505V27.2673ZM80.1341 23.4738H82.0308V19.6837H80.1341V23.4738Z" fill="#416072"/>
<path d="M85.8165 27.2673H93.4001V25.3705H85.8165V27.2673ZM83.9198 25.3705H85.8165V17.787H83.9198V25.3705Z" fill="#416072"/>
<path d="M95.2891 27.2673H97.1859V25.3705H102.873V27.2673H104.769V19.6837H102.873V23.4738H97.1859V19.6837H95.2891V27.2673ZM97.1859 19.6837H102.873V17.787H97.1859V19.6837Z" fill="#416072"/>
<path d="M110.449 27.2673H112.345V23.4738H110.449V27.2673ZM106.658 21.5804H108.555V17.787H106.658V21.5804ZM108.555 23.4738H110.449V21.5804H108.555V23.4738ZM112.345 23.4738H114.242V21.5804H112.345V23.4738ZM114.242 21.5804H116.139V17.787H114.242V21.5804Z" fill="#416072"/>
<path d="M131.296 25.3705H125.609V27.2673H131.296V25.3705ZM123.712 25.3705H125.609V19.6837H123.712V25.3705ZM125.609 19.6837H131.296V17.787H125.609V19.6837ZM131.296 25.3705H133.193V19.6837H131.296V25.3705Z" fill="#416072"/>
<path d="M142.665 27.2673H144.562V17.787H142.665V23.4738H140.769V25.3705H142.665V27.2673ZM135.082 27.2673H136.978V21.5804H138.872V19.6837H136.978V17.787H135.082V27.2673ZM138.872 23.4738H140.769V21.5804H138.872V23.4738Z" fill="#416072"/>
<path d="M148.348 27.2673H155.931V25.3705H148.348V27.2673ZM146.451 25.3705H148.348V17.787H146.451V25.3705Z" fill="#416072"/>
<path d="M157.82 27.2673H163.507V25.3705H161.61V23.4738H163.507V21.5804H157.82V23.4738H159.717V25.3705H157.82V27.2673ZM159.717 19.6837H161.61V17.787H159.717V19.6837Z" fill="#416072"/>
<path d="M172.984 27.2673H174.88V17.787H172.984V23.4738H171.087V25.3705H172.984V27.2673ZM165.4 27.2673H167.297V21.5804H169.19V19.6837H167.297V17.787H165.4V27.2673ZM169.19 23.4738H171.087V21.5804H169.19V23.4738Z" fill="#416072"/>
<path d="M176.769 27.2673H186.25V25.3705H178.666V23.4738H184.353V21.5804H178.666V19.6837H186.25V17.787H176.769V27.2673Z" fill="#416072"/>
</svg>
