<svg width="275" height="254" viewBox="0 0 275 254" fill="none" xmlns="http://www.w3.org/2000/svg">
<path d="M216.251 26.2413C216.251 107.636 150.316 173.574 68.9184 173.574C-12.4796 173.574 -78.4145 107.636 -78.4145 26.2413C-78.4145 -55.1567 -12.4796 -121.27 68.9184 -121.27C150.316 -121.27 216.251 -55.1567 216.251 26.2413Z" fill="#A7DCFA"/>
<path d="M231.893 189.212H-80.5466V-123.227H231.893V189.212ZM-78.4145 187.258H229.935V-121.27H-78.4145V187.258Z" fill="#22271E"/>
<path d="M75.6713 189.212C-10.5257 189.212 -80.5466 119.191 -80.5466 32.9942C-80.5466 -53.2027 -10.3474 -123.227 75.6713 -123.227C161.69 -123.227 231.893 -53.2027 231.893 32.9942C231.893 119.191 161.868 189.212 75.6713 189.212ZM75.6713 -121.27C-9.28134 -121.27 -78.4145 -51.9584 -78.4145 32.9942C-78.4145 117.947 -9.28134 187.258 75.8496 187.258C160.98 187.258 230.114 118.122 230.114 32.9942C230.114 -52.1367 160.802 -121.27 75.6713 -121.27Z" fill="#22271E"/>
<path d="M240.778 -114.339H223.182V-131.934H240.778V-114.339ZM240.778 23.7527H223.182V41.3479H240.778V23.7527ZM240.778 179.439H223.182V197.031H240.778V179.439ZM85.0911 179.439H67.4959V197.031H85.0911V179.439ZM-70.7738 -131.046H-88.1907V-113.451H-70.5955V-131.046H-70.7738ZM-70.7738 24.284H-88.1907V41.8792H-70.5955V24.284H-70.7738ZM85.0911 -131.046H67.4959V-113.451H85.0911V-131.046ZM-70.7738 179.439H-88.1907V197.031H-70.5955V179.439H-70.7738Z" fill="#EFEFEF"/>
<mask id="mask0_5_541" style="mask-type:luminance" maskUnits="userSpaceOnUse" x="-90" y="-133" width="333" height="332">
<path d="M-90 -133H242.294V198.232H-90V-133Z" fill="white"/>
</mask>
<g mask="url(#mask0_5_541)">
<path d="M241.666 197.922H222.116V178.373H241.666V197.922ZM224.07 195.965H239.712V180.327H224.07V195.965ZM85.9789 197.922H66.4298V178.373H85.9789V197.922ZM68.3837 195.965H84.025V180.327H68.3837V195.965ZM-69.7077 197.922H-89.2568V178.373H-69.7077V197.922ZM-87.2995 195.965H-71.6616V180.327H-87.2995V195.965ZM-69.7077 42.767H-89.2568V23.2179H-69.7077V42.767ZM-87.2995 40.8131H-71.6616V25.1752H-87.2995V40.8131ZM241.666 42.2357H222.116V22.6866H241.666V42.2357ZM224.07 40.2818H239.712V24.6405H224.07V40.2818ZM85.9789 -112.385H66.4298V-131.934H85.9789V-112.385ZM68.3837 -114.517H84.025V-129.98H68.3837V-114.517ZM-69.7077 -112.385H-89.2568V-131.934H-69.7077V-112.385ZM-87.2995 -114.517H-71.6616V-129.98H-87.2995V-114.517ZM241.666 -113.451H222.116V-133H241.666V-113.451ZM224.07 -115.405H239.712V-131.046H224.07V-115.405Z" fill="#22271E"/>
</g>
<mask id="mask1_5_541" style="mask-type:luminance" maskUnits="userSpaceOnUse" x="231" y="187" width="45" height="67">
<path d="M231.963 187.901H275.01V253.644H231.963V187.901Z" fill="white"/>
</mask>
<g mask="url(#mask1_5_541)">
<path d="M244.154 207.695C240.956 209.827 237.754 211.785 234.378 213.917C233.847 205.385 233.134 196.856 232.602 188.146C240.065 192.236 247.709 196.5 255.171 200.586C251.973 202.721 248.775 204.675 245.398 206.807L252.508 217.65L251.085 218.538L244.154 207.695ZM256.062 222.98L254.64 223.868L261.749 234.71C258.551 236.842 255.35 238.796 251.973 240.932C259.439 245.018 267.08 249.282 274.545 253.371C274.011 244.84 273.301 236.311 272.766 227.601C269.568 229.733 266.37 231.69 262.994 233.822L256.062 222.98ZM245.755 226.891L262.281 216.227L261.393 214.805L244.864 225.469L245.755 226.891Z" fill="#22271E"/>
</g>
</svg>
