<svg width="362" height="48" viewBox="0 0 362 48" fill="none" xmlns="http://www.w3.org/2000/svg">
<mask id="mask0_43_928" style="mask-type:luminance" maskUnits="userSpaceOnUse" x="1" y="0" width="359" height="47">
<path d="M1.64392 0.252136H359.749V46.9891H1.64392V0.252136Z" fill="white"/>
</mask>
<g mask="url(#mask0_43_928)">
<mask id="mask1_43_928" style="mask-type:luminance" maskUnits="userSpaceOnUse" x="1" y="0" width="359" height="47">
<path d="M25.0124 0.252136H336.384C342.583 0.252136 348.527 2.71304 352.907 7.09694C357.291 11.4775 359.752 17.4213 359.752 23.6206C359.752 29.8199 357.291 35.7637 352.907 40.1443C348.527 44.5282 342.583 46.9891 336.384 46.9891H25.0124C18.8131 46.9891 12.8693 44.5282 8.48872 40.1443C4.10482 35.7637 1.64392 29.8199 1.64392 23.6206C1.64392 17.4213 4.10482 11.4775 8.48872 7.09694C12.8693 2.71304 18.8131 0.252136 25.0124 0.252136Z" fill="white"/>
</mask>
<g mask="url(#mask1_43_928)">
<path d="M1.64392 0.252136H359.678V46.9891H1.64392V0.252136Z" fill="#5292CD"/>
</g>
</g>
<mask id="mask2_43_928" style="mask-type:luminance" maskUnits="userSpaceOnUse" x="1" y="0" width="359" height="47">
<path d="M1.64392 0.252136H359.749V46.9487H1.64392V0.252136Z" fill="white"/>
</mask>
<g mask="url(#mask2_43_928)">
<mask id="mask3_43_928" style="mask-type:luminance" maskUnits="userSpaceOnUse" x="1" y="0" width="359" height="47">
<path d="M25.0124 0.252136H336.377C342.573 0.252136 348.517 2.71304 352.901 7.09694C357.284 11.4775 359.745 17.4213 359.745 23.6206C359.745 29.8199 357.284 35.7637 352.901 40.1443C348.517 44.5282 342.573 46.9891 336.377 46.9891H25.0124C18.8131 46.9891 12.8693 44.5282 8.48872 40.1443C4.10482 35.7637 1.64392 29.8199 1.64392 23.6206C1.64392 17.4213 4.10482 11.4775 8.48872 7.09694C12.8693 2.71304 18.8131 0.252136 25.0124 0.252136Z" fill="white"/>
</mask>
<g mask="url(#mask3_43_928)">
<path d="M25.0124 0.252136H336.377C342.573 0.252136 348.517 2.71304 352.901 7.09694C357.285 11.4775 359.746 17.4213 359.746 23.6206C359.746 29.8199 357.285 35.7638 352.901 40.1443C348.517 44.5282 342.573 46.9891 336.377 46.9891H25.0124C18.8131 46.9891 12.8693 44.5282 8.48873 40.1443C4.10482 35.7638 1.64392 29.8199 1.64392 23.6206C1.64392 17.4213 4.10482 11.4775 8.48873 7.09694C12.8693 2.71304 18.8131 0.252136 25.0124 0.252136Z" stroke="#416072" stroke-width="7.92858"/>
</g>
</g>
<path d="M159.09 27.1391H160.97V25.2598H166.607V23.3805H160.97V19.6219H166.607V17.7426H159.09V27.1391ZM166.607 23.3805H168.487V19.6219H166.607V23.3805Z" fill="#1C191A"/>
<path d="M172.237 27.1391H179.754V25.2598H172.237V27.1391ZM170.358 25.2598H172.237V17.7426H170.358V25.2598Z" fill="#1C191A"/>
<path d="M181.626 27.1391H183.505V25.2598H189.143V27.1391H191.022V19.6219H189.143V23.3805H183.505V19.6219H181.626V27.1391ZM183.505 19.6219H189.143V17.7426H183.505V19.6219Z" fill="#1C191A"/>
<path d="M196.652 27.1391H198.531V23.3805H196.652V27.1391ZM192.894 21.5012H194.773V17.7426H192.894V21.5012ZM194.773 23.3805H196.652V21.5012H194.773V23.3805ZM198.531 23.3805H200.411V21.5012H198.531V23.3805ZM200.411 21.5012H202.29V17.7426H200.411V21.5012Z" fill="#1C191A"/>
</svg>
