<svg width="363" height="48" viewBox="0 0 363 48" fill="none" xmlns="http://www.w3.org/2000/svg">
<mask id="mask0_5_543" style="mask-type:luminance" maskUnits="userSpaceOnUse" x="0" y="0" width="363" height="48">
<path d="M0.731018 0.176514H362.176V47.3358H0.731018V0.176514Z" fill="white"/>
</mask>
<g mask="url(#mask0_5_543)">
<mask id="mask1_5_543" style="mask-type:luminance" maskUnits="userSpaceOnUse" x="0" y="0" width="363" height="48">
<path d="M24.3123 0.176514H338.487C344.742 0.176514 350.738 2.65841 355.161 7.08075C359.583 11.5031 362.068 17.5027 362.068 23.7545C362.068 30.0097 359.583 36.0092 355.161 40.4282C350.738 44.8506 344.742 47.3358 338.487 47.3358H24.3123C18.0572 47.3358 12.0576 44.8506 7.63525 40.4282C3.21627 36.0092 0.731018 30.0097 0.731018 23.7545C0.731018 17.5027 3.21627 11.5031 7.63525 7.08075C12.0576 2.65841 18.0572 0.176514 24.3123 0.176514Z" fill="white"/>
</mask>
<g mask="url(#mask1_5_543)">
<path d="M0.731018 0.176514H361.991V47.3358H0.731018V0.176514Z" fill="#5292CD"/>
</g>
</g>
<mask id="mask2_5_543" style="mask-type:luminance" maskUnits="userSpaceOnUse" x="0" y="0" width="363" height="48">
<path d="M0.731018 0.176514H362.199V47.2955H0.731018V0.176514Z" fill="white"/>
</mask>
<g mask="url(#mask2_5_543)">
<mask id="mask3_5_543" style="mask-type:luminance" maskUnits="userSpaceOnUse" x="0" y="0" width="363" height="48">
<path d="M24.309 0.176514H338.48C344.732 0.176514 350.732 2.65841 355.154 7.08075C359.573 11.5031 362.058 17.5027 362.058 23.7545C362.058 30.0097 359.573 36.0059 355.154 40.4282C350.732 44.8506 344.732 47.3358 338.48 47.3358H24.309C18.0572 47.3358 12.0576 44.8506 7.63525 40.4282C3.21291 36.0059 0.731018 30.0097 0.731018 23.7545C0.731018 17.5027 3.21291 11.5031 7.63525 7.08075C12.0576 2.65841 18.0572 0.176514 24.309 0.176514Z" fill="white"/>
</mask>
<g mask="url(#mask3_5_543)">
<path d="M24.309 0.176514H338.48C344.732 0.176514 350.732 2.65841 355.154 7.08075C359.573 11.5031 362.058 17.5027 362.058 23.7545C362.058 30.0097 359.573 36.0059 355.154 40.4282C350.732 44.8506 344.732 47.3358 338.48 47.3358H24.309C18.0572 47.3358 12.0576 44.8506 7.63525 40.4282C3.21291 36.0059 0.731018 30.0097 0.731018 23.7545C0.731018 17.5027 3.21291 11.5031 7.63525 7.08075C12.0576 2.65841 18.0572 0.176514 24.309 0.176514Z" stroke="#416072" stroke-width="7.99735"/>
</g>
</g>
<path d="M115.071 19.7225H113.174V21.6193H115.071V19.7225ZM113.174 27.3061H120.758V25.4094H113.174V27.3061ZM115.071 23.5126H120.758V21.6193H115.071V23.5126ZM115.071 19.7225H122.654V17.8258H115.071V19.7225ZM120.758 25.4094H122.654V23.5126H120.758V25.4094Z" fill="#1C191A"/>
<path d="M124.543 27.3061H130.23V25.4094H128.333V23.5126H130.23V21.6193H124.543V23.5126H126.44V25.4094H124.543V27.3061ZM126.44 19.7225H128.333V17.8258H126.44V19.7225Z" fill="#1C191A"/>
<path d="M139.706 27.3061H141.603V17.8258H139.706V23.5126H137.81V25.4094H139.706V27.3061ZM132.123 27.3061H134.02V21.6193H135.913V19.7225H134.02V17.8258H132.123V27.3061ZM135.913 23.5126H137.81V21.6193H135.913V23.5126Z" fill="#1C191A"/>
<path d="M145.389 27.3061H152.972V21.6193H147.282V23.5126H151.076V25.4094H145.389V27.3061ZM143.492 25.4094H145.389V19.7225H143.492V25.4094ZM145.389 19.7225H152.972V17.8258H145.389V19.7225Z" fill="#1C191A"/>
<path d="M156.758 27.3061H164.342V25.4094H156.758V27.3061ZM154.861 25.4094H156.758V17.8258H154.861V25.4094Z" fill="#1C191A"/>
<path d="M166.231 27.3061H175.711V25.4094H168.128V23.5126H173.814V21.6193H168.128V19.7225H175.711V17.8258H166.231V27.3061Z" fill="#1C191A"/>
<path d="M183.285 27.3061H185.181V25.4094H190.868V23.5126H185.181V19.7225H190.868V17.8258H183.285V27.3061ZM190.868 23.5126H192.765V19.7225H190.868V23.5126Z" fill="#1C191A"/>
<path d="M196.551 27.3061H204.134V25.4094H196.551V27.3061ZM194.654 25.4094H196.551V17.8258H194.654V25.4094Z" fill="#1C191A"/>
<path d="M206.023 27.3061H207.92V25.4094H213.607V27.3061H215.504V19.7225H213.607V23.5126H207.92V19.7225H206.023V27.3061ZM207.92 19.7225H213.607V17.8258H207.92V19.7225Z" fill="#1C191A"/>
<path d="M221.183 27.3061H223.079V23.5126H221.183V27.3061ZM217.393 21.6193H219.289V17.8258H217.393V21.6193ZM219.289 23.5126H221.183V21.6193H219.289V23.5126ZM223.079 23.5126H224.976V21.6193H223.079V23.5126ZM224.976 21.6193H226.873V17.8258H224.976V21.6193Z" fill="#1C191A"/>
<path d="M228.762 27.3061H238.242V25.4094H230.659V23.5126H236.346V21.6193H230.659V19.7225H238.242V17.8258H228.762V27.3061Z" fill="#1C191A"/>
<path d="M240.131 27.3061H242.028V25.4094H247.715V23.5126H242.028V19.7225H247.715V17.8258H240.131V27.3061ZM247.715 27.3061H249.611V25.4094H247.715V27.3061ZM247.715 23.5126H249.611V19.7225H247.715V23.5126Z" fill="#1C191A"/>
</svg>
