<svg width="330" height="65" viewBox="0 0 330 65" fill="none" xmlns="http://www.w3.org/2000/svg">
<path d="M46.6331 63.7273C49.9591 63.8148 50.8335 62.066 49.4311 59.2646C46.1959 52.7909 43.9225 47.9784 42.0829 44.2186C44.0974 43.0819 45.8461 41.5921 47.3326 39.7559C51.7953 34.3314 51.0958 22.2582 49.8716 16.4839C46.5456 1.34709 33.9479 1.6094 15.4884 1.78428H3.06545C1.48821 1.78428 0.0892029 3.62384 0.0892029 5.19772L0.264079 59.8767C0.264079 61.8037 1.57565 63.2901 3.24033 63.2901L18.4613 63.2027C19.9477 63.2027 21.6998 61.7162 21.5249 59.7018L21.1752 48.5905H22.8365L28.1736 60.4921C29.2228 62.4157 30.2721 63.6399 32.1117 63.6399C38.6729 63.6399 43.2196 63.6399 46.6331 63.7273ZM20.3849 21.821C24.8476 21.9085 28.5233 21.5587 29.7475 22.5205C33.3358 25.4934 31.059 30.9179 25.0225 30.9179H20.6506L20.3849 21.821Z" fill="#07A5C3"/>
<path d="M57.4797 63.2901L66.9264 63.2027C67.1887 63.2901 67.5385 63.2901 67.8008 63.2901L91.1602 63.0278C92.1253 63.0278 92.9123 62.7655 93.6118 62.1534C94.2238 61.5413 94.5736 60.8418 94.5736 59.9641V46.9291C94.5736 46.1422 94.2238 45.5301 93.5243 44.918C92.8248 44.306 92.0345 44.0437 91.1602 43.9562L75.3272 43.2567L75.1523 39.7558L83.812 39.3187C84.5115 39.2312 85.1236 39.0563 85.7356 38.6192C86.3511 38.182 86.6134 37.7448 86.6134 37.1293L87.0506 27.7701C87.138 27.0706 86.8757 26.546 86.2603 26.1088C85.6482 25.6716 85.0361 25.4934 84.2492 25.4934L74.8025 25.4059L74.6243 21.034L91.1602 20.2471C92.0345 20.1597 92.8248 19.8974 93.5243 19.2819C94.2238 18.6699 94.5736 18.0578 94.5736 17.2709V4.23588C94.5736 3.3615 94.2238 2.66199 93.6118 2.04656C92.9123 1.4345 92.1253 1.17219 91.1602 1.17219L57.3049 1.08475C56.5146 1.08475 55.9025 1.4345 55.2904 2.134C54.6784 2.83687 54.3286 3.62381 54.3286 4.49819L54.5035 59.8767C54.5035 60.8418 54.7658 61.7162 55.3779 62.3283C55.9899 62.9404 56.6894 63.2901 57.4797 63.2901Z" fill="#07A5C3"/>
<path d="M114.519 63.6398H136.479C138.14 63.6398 139.102 61.9785 139.539 60.2264L152.487 6.94644C152.837 4.84793 153.277 4.58561 152.399 3.18661C151.875 2.30887 151 1.78424 149.864 1.78424C132.541 1.78424 132.716 0.647546 131.579 6.77156L125.542 40.5428L119.418 6.77156C118.278 0.647546 118.457 1.78424 101.134 1.78424C99.9938 1.78424 99.1194 2.30887 98.5947 3.18661C97.7204 4.58561 98.1576 4.84793 98.5073 6.94644L111.455 60.2264C111.892 61.9785 112.857 63.6398 114.519 63.6398Z" fill="#07A5C3"/>
<path d="M159.572 63.2901L169.019 63.2027C169.281 63.2901 169.631 63.2901 169.893 63.2901L193.253 63.0278C194.218 63.0278 195.005 62.7655 195.704 62.1534C196.316 61.5413 196.666 60.8418 196.666 59.9641V46.9291C196.666 46.1422 196.316 45.5301 195.617 44.918C194.917 44.306 194.127 44.0437 193.253 43.9562L177.42 43.2567L177.245 39.7558L185.905 39.3187C186.604 39.2312 187.216 39.0563 187.828 38.6192C188.444 38.182 188.706 37.7448 188.706 37.1293L189.143 27.7701C189.231 27.0706 188.968 26.546 188.353 26.1088C187.741 25.6716 187.129 25.4934 186.342 25.4934L176.895 25.4059L176.717 21.034L193.253 20.2471C194.127 20.1597 194.917 19.8974 195.617 19.2819C196.316 18.6699 196.666 18.0578 196.666 17.2709V4.23588C196.666 3.3615 196.316 2.66199 195.704 2.04656C195.005 1.4345 194.218 1.17219 193.253 1.17219L159.397 1.08475C158.607 1.08475 157.995 1.4345 157.383 2.134C156.771 2.83687 156.421 3.62381 156.421 4.49819L156.596 59.8767C156.596 60.8418 156.858 61.7162 157.47 62.3283C158.082 62.9404 158.782 63.2901 159.572 63.2901Z" fill="#07A5C3"/>
<path d="M246.707 63.7273C250.033 63.8148 250.907 62.066 249.505 59.2646C246.269 52.7909 243.996 47.9784 242.156 44.2186C244.171 43.0819 245.92 41.5921 247.406 39.7559C251.869 34.3314 251.169 22.2582 249.945 16.4839C246.619 1.34709 234.021 1.6094 215.562 1.78428H203.139C201.562 1.78428 200.163 3.62384 200.163 5.19772L200.338 59.8767C200.338 61.8037 201.649 63.2901 203.314 63.2901L218.535 63.2027C220.021 63.2027 221.773 61.7162 221.598 59.7018L221.249 48.5905H222.91L228.247 60.4921C229.296 62.4157 230.346 63.6399 232.185 63.6399C238.746 63.6399 243.293 63.6399 246.707 63.7273ZM220.458 21.821C224.921 21.9085 228.597 21.5587 229.821 22.5205C233.409 25.4934 231.132 30.9179 225.096 30.9179H220.724L220.458 21.821Z" fill="#07A5C3"/>
<path d="M257.466 64.1645C274.963 65.1263 289.31 65.2137 295.696 60.0515C298.673 57.6032 300.509 54.1024 301.383 50.43C303.394 42.1167 300.246 34.9434 291.846 30.9179C288.873 29.6063 285.547 28.4696 283.448 27.4204C279.773 25.5842 280.65 22.6079 283.448 21.2963C285.897 20.1596 292.199 20.9466 296.221 20.9466C298.585 20.9466 299.984 19.8099 299.984 17.7955C300.159 5.63486 300.334 3.97354 299.285 2.66198C297.707 0.734979 283.885 0.734978 279.947 0.909854C273.649 1.17217 265.601 1.69679 260.788 5.54743C255.889 9.39806 254.402 14.4728 254.402 20.7717C254.402 29.2566 259.302 33.2821 270.588 37.4824C276.45 39.6684 276.275 44.1311 270.326 44.3934C265.601 44.5683 255.102 42.7287 255.102 47.104V60.0515C255.102 62.1534 255.626 63.7273 257.466 64.1645Z" fill="#07A5C3"/>
<path d="M324.738 63.2901C326.578 63.2901 328.152 61.7163 328.152 59.8767L329.201 5.54748C329.289 3.53641 327.54 2.04661 325.788 2.04661L308.993 1.95917C307.153 1.95917 305.667 3.36154 305.667 5.37261L305.492 59.8767C305.492 61.6288 307.066 63.2901 308.818 63.2901H324.738Z" fill="#07A5C3"/>
</svg>
