<svg width="154" height="48" viewBox="0 0 154 48" fill="none" xmlns="http://www.w3.org/2000/svg">
<mask id="mask0_5_550" style="mask-type:luminance" maskUnits="userSpaceOnUse" x="0" y="0" width="154" height="48">
<path d="M0.142944 0.315552H153.122V47.4379H0.142944V0.315552Z" fill="white"/>
</mask>
<g mask="url(#mask0_5_550)">
<mask id="mask1_5_550" style="mask-type:luminance" maskUnits="userSpaceOnUse" x="0" y="0" width="154" height="48">
<path d="M23.7243 0.315552H129.844C136.099 0.315552 142.095 2.80081 146.517 7.22315C150.94 11.6455 153.425 17.6417 153.425 23.8969C153.425 30.1521 150.94 36.1483 146.517 40.5706C142.095 44.993 136.099 47.4782 129.844 47.4782H23.7243C17.4691 47.4782 11.4729 44.993 7.05054 40.5706C2.6282 36.1483 0.142944 30.1521 0.142944 23.8969C0.142944 17.6417 2.6282 11.6455 7.05054 7.22315C11.4729 2.80081 17.4691 0.315552 23.7243 0.315552Z" fill="white"/>
</mask>
<g mask="url(#mask1_5_550)">
<path d="M23.7243 0.315552H129.844C136.099 0.315552 142.095 2.80081 146.517 7.22315C150.94 11.6455 153.425 17.6417 153.425 23.8969C153.425 30.1521 150.94 36.1483 146.517 40.5706C142.095 44.993 136.099 47.4782 129.844 47.4782H23.7243C17.4691 47.4782 11.4729 44.993 7.05054 40.5706C2.6282 36.1483 0.142944 30.1521 0.142944 23.8969C0.142944 17.6417 2.6282 11.6455 7.05054 7.22315C11.4729 2.80081 17.4691 0.315552 23.7243 0.315552Z" stroke="#07A5C3" stroke-width="7.99735"/>
</g>
</g>
<path d="M31.7066 23.6541H29.8099V25.5508H31.7066V23.6541ZM24.123 23.6541H26.0198V17.9672H24.123V23.6541ZM26.0198 25.5508H27.9131V23.6541H26.0198V25.5508ZM27.9131 27.4475H29.8099V25.5508H27.9131V27.4475ZM31.7066 23.6541H33.6033V17.9672H31.7066V23.6541Z" fill="#1C191A"/>
<path d="M35.4923 27.4475H41.1791V25.5508H39.2824V23.6541H41.1791V21.7607H35.4923V23.6541H37.389V25.5508H35.4923V27.4475ZM37.389 19.864H39.2824V17.9672H37.389V19.864Z" fill="#1C191A"/>
<path d="M43.0718 27.4475H52.5521V25.5508H44.9685V23.6541H50.6553V21.7607H44.9685V19.864H52.5521V17.9672H43.0718V27.4475Z" fill="#1C191A"/>
<path d="M56.3379 27.4475H65.5458V25.5508H62.0247V19.864H60.128V25.5508H56.3379V27.4475ZM54.4412 25.5508H56.3379V17.9672H54.4412V25.5508ZM65.5458 25.5508H67.4425V17.9672H65.5458V25.5508Z" fill="#1C191A"/>
<path d="M76.911 19.864H75.0143V21.7607H76.911V19.864ZM75.0143 27.4475H82.5978V25.5508H75.0143V27.4475ZM76.911 23.6541H82.5978V21.7607H76.911V23.6541ZM76.911 19.864H84.4946V17.9672H76.911V19.864ZM82.5978 25.5508H84.4946V23.6541H82.5978V25.5508Z" fill="#1C191A"/>
<path d="M90.1735 27.4475H92.0703V19.864H95.8637V17.9672H86.3834V19.864H90.1735V27.4475Z" fill="#1C191A"/>
<path d="M97.7528 27.4475H99.6495V25.5508H105.336V27.4475H107.233V19.864H105.336V23.6541H99.6495V19.864H97.7528V27.4475ZM99.6495 19.864H105.336V17.9672H99.6495V19.864Z" fill="#1C191A"/>
<path d="M112.912 27.4475H114.809V19.864H118.602V17.9672H109.122V19.864H112.912V27.4475Z" fill="#1C191A"/>
<path d="M122.388 19.864H120.491V21.7607H122.388V19.864ZM120.491 27.4475H128.075V25.5508H120.491V27.4475ZM122.388 23.6541H128.075V21.7607H122.388V23.6541ZM122.388 19.864H129.972V17.9672H122.388V19.864ZM128.075 25.5508H129.972V23.6541H128.075V25.5508Z" fill="#1C191A"/>
</svg>
